<svg viewBox="0 0 600 400" xmlns="http://www.w3.org/2000/svg">
<g transform="translate(72, 364)">
<g>
<g>
<path d="M0,-75.64753 L0,-75.64753 L53.333332,-99.32935 L106.666664,-108.80416 L160,-125.25494 L213.33333,-146.80754 L480,-264.40973" fill="none" stroke="#9A6324" stroke-linejoin="miter" stroke-width="1"/>
</g>
<g>
<circle cx="0" cy="-75.6475271780738" fill="#9A6324" r="5"/>
<circle cx="53.333333333333336" cy="-99.32935231970602" fill="#9A6324" r="5"/>
<circle cx="106.66666666666667" cy="-108.80416475271781" fill="#9A6324" r="5"/>
<circle cx="160" cy="-125.25493798805697" fill="#9A6324" r="5"/>
<circle cx="213.33333333333334" cy="-146.80753330271014" fill="#9A6324" r="5"/>
<circle cx="480" cy="-264.40973817179605" fill="#9A6324" r="5"/>
</g>
</g>
<g>
<g>
<line stroke="black" stroke-width="1" x1="0" x2="0" y1="0" y2="10"/>
<line stroke="black" stroke-width="1" x1="106.66666666666667" x2="106.66666666666667" y1="0" y2="10"/>
<line stroke="black" stroke-width="1" x1="213.33333333333334" x2="213.33333333333334" y1="0" y2="10"/>
<line stroke="black" stroke-width="1" x1="320" x2="320" y1="0" y2="10"/>
<line stroke="black" stroke-width="1" x1="426.6666666666667" x2="426.6666666666667" y1="0" y2="10"/>
</g>
<line stroke="black" stroke-width="1" x1="0" x2="480" y1="0" y2="0"/>
<g>
<text font-size="12" text-anchor="middle" x="0" y="20">
1
</text>
<text font-size="12" text-anchor="middle" x="106.66666666666667" y="20">
3
</text>
<text font-size="12" text-anchor="middle" x="213.33333333333334" y="20">
5
</text>
<text font-size="12" text-anchor="middle" x="320" y="20">
7
</text>
<text font-size="12" text-anchor="middle" x="426.6666666666667" y="20">
9
</text>
</g>
<text font-size="12" text-anchor="middle" x="240" y="30">
Universities
</text>
</g>
<g>
<g>
<line stroke="black" stroke-width="1" x1="0" x2="-10" y1="-57.7859439595774" y2="-57.7859439595774"/>
<line stroke="black" stroke-width="1" x1="0" x2="-10" y1="-120.2572347266881" y2="-120.2572347266881"/>
<line stroke="black" stroke-width="1" x1="0" x2="-10" y1="-182.7285254937988" y2="-182.7285254937988"/>
<line stroke="black" stroke-width="1" x1="0" x2="-10" y1="-245.1998162609095" y2="-245.1998162609095"/>
<line stroke="black" stroke-width="1" x1="0" x2="-10" y1="-307.67110702802023" y2="-307.67110702802023"/>
</g>
<line stroke="black" stroke-width="1" x1="0" x2="0" y1="0" y2="-340"/>
<g>
<text dominant-baseline="middle" font-size="12" text-anchor="end" x="-15" y="-57.7859439595774">
0
</text>
<text dominant-baseline="middle" font-size="12" text-anchor="end" x="-15" y="-120.2572347266881">
400
</text>
<text dominant-baseline="middle" font-size="12" text-anchor="end" x="-15" y="-182.7285254937988">
800
</text>
<text dominant-baseline="middle" font-size="12" text-anchor="end" x="-15" y="-245.1998162609095">
1200
</text>
<text dominant-baseline="middle" font-size="12" text-anchor="end" x="-15" y="-307.67110702802023">
1600
</text>
</g>
<text font-size="12" text-anchor="middle" transform="rotate(-90 -48 -170)" x="-48" y="-182">
Materialization Time (ms)
</text>
</g>
</g>
</svg>